<?xml version="1.0" encoding="UTF-8" standalone="no"?>
<svg xmlns="http://www.w3.org/2000/svg" width="512" height="512" viewBox="0 0 512 512">
  <g transform="translate(0,-540.36216)">
    <g transform="matrix(2.4218255,0,0,2.4218255,-363.98732,-1230.5329)">
      <rect y="789.92041" x="193.88217" height="9.0913725" width="124.23567" style="fill:#000000"/>
      <rect y="789.91333" x="251.35713" height="60.714283" width="9.2857141" style="fill:#000000"/>
      <g transform="translate(-31.079587,0)">
        <rect y="789.91333" x="224.93672" height="101.07143" width="9.2857141" style="fill:#000000"/>
        <rect y="789.91333" x="339.93674" height="101.07143" width="9.2857141" style="fill:#000000"/>
      </g>
      <rect y="849.33893" x="194.00717" height="9.0913725" width="123.98567" style="fill:#000000"/>
      <rect y="770.63458" x="187.875" height="16" width="136.25" style="fill:#000000"/>
      <path d="m 255.98828,737.82983 a 44.017399,30.405592 0 0 0 -43.93946,29.3457 l 87.90235,0 a 44.017399,30.405592 0 0 0 -43.96289,-29.3457 z" style="fill:#000000"/>
      <path d="m 214.04862,934.53993 c -5.89168,-1.61232 -14.62272,-5.61967 -19.49354,-8.94708 -10.54216,-7.20171 -23.02864,-18.79365 -28.8899,-26.8202 l -2.75679,-3.77521 4.32012,-1.9028 c 10.72917,-4.72567 29.81266,-6.10604 43.32011,-3.1335 7.32807,1.61267 20.2931,8.18355 25.79344,13.07253 2.63639,2.34335 5.04559,4.0085 5.35376,3.70032 0.30817,-0.30817 -0.22407,-4.91668 -1.18276,-10.24112 -3.48588,-19.3602 -0.0446,-36.90548 9.62105,-49.05243 2.84076,-3.57004 5.68824,-6.35633 6.32774,-6.19177 2.30829,0.59399 12.74978,13.01366 14.63147,17.40347 4.18122,9.75439 5.21328,16.22219 4.53107,28.39572 -0.35446,6.325 -0.90729,13.73768 -1.22852,16.47263 l -0.58405,4.97262 5.3684,-4.58622 c 12.0603,-10.30311 25.34912,-15.86033 37.92,-15.85766 9.99251,0.002 27.53695,3.50489 31.25131,6.23936 1.54469,1.13719 1.04608,2.03484 -5.14308,9.25927 -15.74745,18.38152 -39.02971,32.56781 -53.30417,32.47916 -3.59746,-0.0223 -11.95847,-1.78331 -20.85566,-4.39255 -8.50724,-2.49488 -17.36137,-2.18131 -26.07064,0.92329 -9.33068,3.32611 -21.07733,4.13096 -28.92936,1.98217 z" style="fill:#000000"/>
    </g>
  </g>
</svg>
